<?xml version="1.0" encoding="iso-8859-1"?>
<!-- Generator: Adobe Illustrator 19.0.0, SVG Export Plug-In . SVG Version: 6.00 Build 0)  -->
<svg version="1.1" id="Capa_1" xmlns="http://www.w3.org/2000/svg" xmlns:xlink="http://www.w3.org/1999/xlink" x="0px" y="0px"
	 viewBox="0 0 512 512" style="enable-background:new 0 0 512 512;" xml:space="preserve">
<rect x="153.724" y="204.789" style="fill:#9A4C00;" width="270.814" height="253.94"/>
<path style="fill:#FFC477;" d="M325.809,327.989H259.29l-97.828,43.678c-21.305,9.512-35.025,30.662-35.025,53.995V512h310.659
	c11.91,0,21.565-9.655,21.565-21.565V425.66c0-23.332-13.72-44.482-35.025-53.995L325.809,327.989z"/>
<path style="fill:#FFB655;" d="M213.498,348.434l38.237,23.985c12.246,7.681,26.359,11.741,40.815,11.741
	c14.456,0,28.569-4.06,40.815-11.741l38.237-23.985l-45.792-20.445h-66.519L213.498,348.434z"/>
<path style="fill:#FF3F62;" d="M423.634,371.666l-37.789-16.872c-8.552,57.471-47.068,100.842-93.297,100.843
	c-46.229-0.001-84.746-43.372-93.297-100.843l-37.789,16.871c-3.667,1.637-7.103,3.626-10.289,5.905
	c10.134,22.544,30.995,75.146,35.354,134.428h212.042c4.36-59.283,25.221-111.884,35.354-134.428
	C430.737,375.292,427.3,373.303,423.634,371.666z"/>
<circle style="fill:#FFB655;" cx="168.774" cy="236.375" r="32.632"/>
<circle style="fill:#FFC477;" cx="416.327" cy="236.375" r="32.632"/>
<path style="fill:#FFD422;" d="M449.376,296.934v29.799c0,5.163-4.186,9.349-9.349,9.349H427.82c-5.163,0-9.349-4.186-9.349-9.349
	v-30.236c0-8.782,7.326-15.852,16.2-15.435C442.982,281.453,449.376,288.613,449.376,296.934z"/>
<path style="fill:#EEBF00;" d="M433.923,326.733v-30.236c0-5.699,3.095-10.662,7.686-13.341c-2.051-1.22-4.404-1.975-6.939-2.094
	c-8.874-0.418-16.2,6.653-16.2,15.435v30.236c0,5.163,4.186,9.349,9.349,9.349h12.208
	C440.026,336.082,433.923,335.156,433.923,326.733z"/>
<circle style="fill:#FFE477;" cx="433.922" cy="271.957" r="15.453"/>
<path style="fill:#FFDA44;" d="M433.923,271.953c0-5.716,3.112-10.695,7.726-13.369c-2.275-1.318-4.909-2.084-7.726-2.084
	c-8.534,0-15.453,6.919-15.453,15.453c0,8.534,6.919,15.453,15.453,15.453c2.818,0,5.452-0.766,7.726-2.084
	C437.035,282.648,433.923,277.669,433.923,271.953z"/>
<path style="fill:#FFDAAA;" d="M292.55,15.233c-76.669,0-138.822,46.92-138.822,123.59c0,40.282,10.457,87.688,18.805,119.112
	c5.799,21.83,19.647,40.645,38.781,52.646l56.844,35.657c14.916,9.356,33.868,9.356,48.784,0l56.844-35.657
	c19.135-12.003,32.982-30.817,38.781-52.646c8.348-31.424,18.805-78.829,18.805-119.112
	C431.372,62.152,369.219,15.233,292.55,15.233z"/>
<path style="fill:#FFC477;" d="M235.798,257.933c-8.348-31.424-18.805-78.829-18.805-119.112c0-53.879,30.699-100.582,75.557-123.59
	c-76.669,0-138.822,46.92-138.822,123.59c0,40.282,10.457,87.688,18.805,119.112c5.799,21.83,19.647,40.645,38.781,52.646
	l56.844,35.657c14.916,9.356,33.868,9.356,48.784,0l7.241-4.542L274.58,310.58C255.445,298.578,241.597,279.763,235.798,257.933z"/>
<path style="fill:#FF3F62;" d="M292.546,274.438c0,0-15.598-11.696-23.974,6.608c0.043,0.031,23.974,17.274,23.974,17.274
	s23.931-17.243,23.974-17.274C308.144,262.741,292.546,274.438,292.546,274.438z"/>
<path style="fill:#FF0C38;" d="M268.572,281.044c0,0-13.081,35.073,23.974,35.073s23.974-35.073,23.974-35.073l-23.974,17.274
	L268.572,281.044z"/>
<g>
	<path style="fill:#3E3D42;" d="M292.546,306.045c-1.584,0-3.168-0.486-4.516-1.458l-30.291-21.825
		c-3.462-2.494-4.246-7.324-1.752-10.785c2.495-3.462,7.324-4.246,10.785-1.752l25.775,18.571l25.775-18.571
		c3.462-2.493,8.291-1.709,10.785,1.752c2.494,3.462,1.71,8.291-1.752,10.785l-30.291,21.825
		C295.713,305.558,294.13,306.045,292.546,306.045z"/>
	<path style="fill:#3E3D42;" d="M236.635,217.133c-5.005-3.717-11.62-4.049-16.36,0c-3.245,2.771-8.121,2.388-10.893-0.857
		c-2.771-3.245-2.387-8.122,0.857-10.893c10.555-9.014,25.876-9.014,36.431,0c3.245,2.771,3.628,7.648,0.858,10.893
		C245.999,218.065,241.661,220.867,236.635,217.133z"/>
	<path style="fill:#3E3D42;" d="M364.825,217.133c-5.005-3.717-11.62-4.049-16.36,0c-3.245,2.771-8.121,2.388-10.893-0.857
		c-2.771-3.245-2.387-8.122,0.857-10.893c10.555-9.014,25.876-9.014,36.431,0c3.245,2.771,3.628,7.648,0.858,10.893
		C374.191,218.065,369.852,220.867,364.825,217.133z"/>
</g>
<path style="fill:#AA6100;" d="M338.534,105.414c0,0,17.859,70.22,86.012,99.375c0,0,52.952-133.829-46.976-172.175L338.534,105.414
	z"/>
<path style="fill:#9A4C00;" d="M338.534,105.414c0,0,3.497,13.735,13.287,31.575c32.654-33.89,47.862-72.189,53.291-88.688
	c-7.536-6.169-16.626-11.498-27.543-15.687L338.534,105.414z"/>
<path style="fill:#CC7400;" d="M161.461,371.666l37.789-16.871c-6.737-23.124-43.72-168.665,50.128-192.574
	C351.415,136.227,377.57,32.614,377.57,32.614C359.725,16.095,284.311-20.74,197.33,15.252
	C110.349,51.244,84.354,174.219,99.351,229.207s29.994,116.975-17.996,171.963c-28.397,32.538-30.112,65.376-26.78,86.765
	C56.739,501.825,68.819,512,82.877,512h43.56V425.66C126.437,402.328,140.157,381.178,161.461,371.666z"/>
<path style="fill:#AA6100;" d="M161.461,371.666l37.789-16.871c-5.878-20.175-34.768-133.526,20.282-177.989l-0.001-0.01
	c0,0-18.403-100.109,59.209-176.703c-24.718-0.736-52.42,3.164-81.411,15.16c-86.98,35.99-112.975,158.965-97.978,213.953
	s29.994,116.975-17.996,171.963c-28.397,32.538-30.112,65.376-26.78,86.765C56.739,501.825,68.819,512,82.877,512h43.56V425.66
	C126.437,402.328,140.157,381.178,161.461,371.666z"/>
<g>
</g>
<g>
</g>
<g>
</g>
<g>
</g>
<g>
</g>
<g>
</g>
<g>
</g>
<g>
</g>
<g>
</g>
<g>
</g>
<g>
</g>
<g>
</g>
<g>
</g>
<g>
</g>
<g>
</g>
</svg>
