<svg id="Capa_1" enable-background="new 0 0 512 512" height="512" viewBox="0 0 512 512" width="512" xmlns="http://www.w3.org/2000/svg"><g><g><path d="m313.368 188.661c-5.85 0-11.699-2.227-16.154-6.68-3.015-3.016-3.015-7.905 0-10.921 3.016-3.014 7.905-3.014 10.921 0 1.398 1.399 3.256 2.169 5.233 2.169s3.835-.77 5.232-2.169c4.36-4.359 4.36-11.453 0-15.812-6.201-6.201-16.292-6.202-22.495 0-3.016 3.014-7.905 3.014-10.921 0-3.015-3.016-3.015-7.905 0-10.921 12.224-12.222 32.112-12.222 44.337 0 10.381 10.381 10.381 27.273.001 37.654-4.453 4.453-10.303 6.68-16.154 6.68z" fill="#eab14d"/></g><g><path d="m345.828 188.672c-6.102 0-11.839-2.377-16.154-6.692-10.38-10.38-10.38-27.272 0-37.653 12.224-12.222 32.112-12.222 44.337 0 3.015 3.016 3.015 7.905 0 10.921-3.016 3.014-7.905 3.014-10.921 0-3.003-3.004-6.998-4.659-11.247-4.659s-8.244 1.655-11.247 4.659c-4.36 4.359-4.36 11.453 0 15.812 1.398 1.399 3.256 2.169 5.232 2.169 1.977 0 3.835-.77 5.232-2.169 3.016-3.014 7.905-3.014 10.921 0 3.015 3.016 3.015 7.905 0 10.921-4.314 4.314-10.052 6.691-16.153 6.691z" fill="#eab14d"/></g><g><path d="m329.598 224.2c-4.265 0-7.722-3.457-7.722-7.722v-141.756c0-4.265 3.457-7.722 7.722-7.722s7.722 3.457 7.722 7.722v141.755c0 4.266-3.457 7.723-7.722 7.723z" fill="#2b4d66"/></g><g fill="#eab14d"><path d="m502.228 385.123h-29.358v-52.213h29.359c5.397 0 9.772 4.375 9.772 9.772v32.669c-.001 5.397-4.376 9.772-9.773 9.772z"/><path d="m156.968 385.123h29.359v-52.213h-29.359c-5.397 0-9.772 4.375-9.772 9.772v32.669c0 5.397 4.375 9.772 9.772 9.772z"/></g><circle cx="329.598" cy="359.017" fill="#365e7d" r="152.835"/><path d="m329.598 206.181c-3.272 0-6.517.115-9.738.318 79.869 5.024 143.097 71.381 143.097 152.517s-63.227 147.494-143.097 152.517c3.221.203 6.466.318 9.738.318 84.408 0 152.835-68.427 152.835-152.835s-68.426-152.835-152.835-152.835z" fill="#2b4d66"/><circle cx="329.598" cy="359.017" fill="#f4fbff" r="119.144"/><path d="m329.598 239.873c-3.455 0-6.873.156-10.253.444 61 5.2 108.891 56.353 108.891 118.7s-47.89 113.499-108.891 118.7c3.38.288 6.798.444 10.253.444 65.801 0 119.144-53.343 119.144-119.144s-53.343-119.144-119.144-119.144z" fill="#daf1f4"/><path d="m326.823 2.248-22.346 79.102c-.52 1.84.863 3.668 2.775 3.668h44.691c1.912 0 3.295-1.827 2.775-3.668l-22.345-79.102c-.79-2.8-4.759-2.8-5.55 0z" fill="#eab14d"/><path d="m413.142 105.827h-83.502c-.028 0-.057 0-.085 0h-169.861c-73.842-10.064-121.716-39.003-131.367-79.442-.988-4.149-5.154-6.708-9.304-5.718-4.149.989-6.708 5.155-5.718 9.304 7.903 33.115 36.365 59.39 80.672 75.857h-10.706c-.277 0-.551.016-.82.044-13.056.204-26.05 5.263-35.991 15.202-24.619 24.62-24.619 64.677.001 89.297 14.948 14.947 34.637 22.62 54.465 22.62 2.515 0 5.031-.136 7.541-.384-34.22 34.749-64.237 74.472-88.157 116.911-2.093 3.715-.779 8.425 2.936 10.519 1.199.675 2.501.995 3.785.995 2.697 0 5.316-1.415 6.735-3.931 31.582-56.038 74.088-107.21 122.921-147.983 53.93-45.028 113.988-75.39 173.734-87.846h82.723c4.265 0 7.722-3.457 7.722-7.722s-3.459-7.723-7.724-7.723zm-266.355 91.435c-3.582 2.99-7.126 6.041-10.64 9.138-24.481 17.144-57.582 14.235-78.767-6.951-18.598-18.597-18.598-48.857-.001-67.454 14.278-14.274 37.506-14.275 51.781 0 10.819 10.818 10.819 28.421 0 39.239-3.9 3.901-9.087 6.05-14.604 6.05-5.516 0-10.703-2.149-14.603-6.05-2.829-2.828-4.388-6.59-4.388-10.59s1.558-7.762 4.388-10.59c3.015-3.016 3.015-7.905 0-10.921-3.016-3.014-7.905-3.014-10.921 0-11.861 11.861-11.861 31.162 0 43.024 14.075 14.074 36.977 14.074 51.05 0 16.775-16.776 16.834-44.028.186-60.884h38.869c.005 0 .01.001.015.001.007 0 .015-.001.022-.001h116.086c-44.542 16.614-88.202 42.364-128.473 75.989z" fill="#2b4d66"/><g><g><path d="m329.598 283.842c-4.265 0-7.722-3.457-7.722-7.722v-6.616c0-4.265 3.457-7.722 7.722-7.722s7.722 3.457 7.722 7.722v6.616c0 4.266-3.457 7.722-7.722 7.722z" fill="#365e7d"/></g><g><path d="m388.214 308.122c-1.976 0-3.952-.754-5.461-2.261-3.015-3.016-3.015-7.905 0-10.921l4.678-4.678c3.016-3.014 7.905-3.014 10.921 0 3.015 3.016 3.015 7.905 0 10.921l-4.678 4.678c-1.507 1.507-3.484 2.261-5.46 2.261z" fill="#365e7d"/></g><g><path d="m419.11 366.738h-6.616c-4.265 0-7.722-3.457-7.722-7.722s3.457-7.722 7.722-7.722h6.616c4.265 0 7.722 3.457 7.722 7.722 0 4.266-3.457 7.722-7.722 7.722z" fill="#365e7d"/></g><g><path d="m392.893 430.033c-1.976 0-3.952-.754-5.461-2.261l-4.678-4.678c-3.015-3.016-3.015-7.905 0-10.921 3.016-3.014 7.905-3.014 10.921 0l4.678 4.678c3.015 3.016 3.015 7.905 0 10.921-1.508 1.507-3.485 2.261-5.46 2.261z" fill="#365e7d"/></g><g><path d="m329.598 456.25c-4.265 0-7.722-3.457-7.722-7.722v-6.616c0-4.265 3.457-7.722 7.722-7.722s7.722 3.457 7.722 7.722v6.616c0 4.265-3.457 7.722-7.722 7.722z" fill="#365e7d"/></g><g><path d="m266.304 430.033c-1.976 0-3.952-.754-5.461-2.261-3.015-3.016-3.015-7.905 0-10.921l4.678-4.678c3.016-3.014 7.905-3.014 10.921 0 3.015 3.016 3.015 7.905 0 10.921l-4.678 4.678c-1.508 1.507-3.485 2.261-5.46 2.261z" fill="#365e7d"/></g><g><path d="m246.702 366.738h-6.616c-4.265 0-7.722-3.457-7.722-7.722s3.457-7.722 7.722-7.722h6.616c4.265 0 7.722 3.457 7.722 7.722 0 4.266-3.457 7.722-7.722 7.722z" fill="#365e7d"/></g><g><path d="m270.982 308.122c-1.976 0-3.952-.754-5.461-2.261l-4.678-4.678c-3.015-3.016-3.015-7.905 0-10.921 3.016-3.014 7.905-3.014 10.921 0l4.678 4.678c3.015 3.016 3.015 7.905 0 10.921-1.508 1.507-3.484 2.261-5.46 2.261z" fill="#365e7d"/></g></g><g><path d="m357.918 366.738h-28.32c-4.265 0-7.722-3.457-7.722-7.722v-47.636c0-4.265 3.457-7.722 7.722-7.722s7.722 3.457 7.722 7.722v39.914h20.598c4.265 0 7.722 3.457 7.722 7.722 0 4.266-3.457 7.722-7.722 7.722z" fill="#2b4d66"/></g><path d="m7.659 407.141h-3.693c-2.191 0-3.966-1.776-3.966-3.966v-399.06c0-2.191 1.776-3.966 3.966-3.966h3.693c15.48 0 28.029 12.549 28.029 28.029v350.935c0 15.479-12.549 28.028-28.029 28.028z" fill="#664545"/><path d="m7.659.148h-3.693c-.98 0-1.866.369-2.558.958 11.953 3.204 20.756 14.106 20.756 27.07v350.935c0 12.964-8.803 23.866-20.756 27.07.692.59 1.578.959 2.559.959h3.693c15.48 0 28.029-12.549 28.029-28.029v-350.934c-.001-15.48-12.55-28.029-28.03-28.029z" fill="#523838"/></g></svg>