<svg id="Layer_1" enable-background="new 0 0 512 512" height="512" viewBox="0 0 512 512" width="512" xmlns="http://www.w3.org/2000/svg"><g><g><path d="m432.344 445.987h-278.485c-18.412 0-33.338-14.926-33.338-33.337v-9.29-370.023c0-18.411 14.926-33.337 33.338-33.337h278.485c18.412 0 33.337 14.926 33.337 33.337v370.023 9.29c0 18.412-14.925 33.337-33.337 33.337z" fill="#e4eef9"/><path d="m432.344 436.697h-278.485c-18.412 0-33.338-14.926-33.338-33.337v18.581c0 18.412 14.926 33.337 33.338 33.337h7.809l66.851 9.29 76.933-9.29h126.892c18.412 0 33.337-14.926 33.337-33.337v-18.581c0 18.412-14.925 33.337-33.337 33.337z" fill="#d5e0f2"/><path d="m429.039 379.523h-271.876l-9.29-9.29v-315.67c0-2.851 2.311-5.161 5.161-5.161h280.134c2.85 0 5.161 2.311 5.161 5.161v315.67z" fill="#86dcff"/><path d="m153.034 388.813h280.134c2.85 0 5.161-2.311 5.161-5.161v-13.419h-290.456v13.419c0 2.85 2.311 5.161 5.161 5.161z" fill="#56caed"/><path d="m161.668 455.279c41.614-63.927-10.748-130.91-10.748-130.91s9.578-38.99 15.996-72.98c2.803-14.845-1.419-24.922-7.064-31.565-6.781-7.98-19.49-6.55-24.361 2.721l-55.291 105.247c-6.684 12.723-8.993 27.293-6.569 41.46l4.704 27.494c3.909 22.848.269 46.347-10.369 66.942l-21.065 40.782c-1.774 3.435.719 7.53 4.586 7.53h169.57c1.704 0 3.298-.841 4.26-2.247l14.333-20.954s20.934-4.318 41.006-14.937l-3.074-9.29-115.748-.001z" fill="#ffe0cc"/><g><path d="m161.758 455.279c-4.04 6.149-9.142 12.361-15.492 18.581l134.389.002c9.127-4.829 18.075-10.96 24.797-18.581z" fill="#ffceb3"/></g><ellipse cx="293.101" cy="420.42" fill="#405b6c" rx="14.057" ry="14.057" transform="matrix(.987 -.16 .16 .987 -63.559 52.378)"/><path d="m283.816 236.112h-81.323c-10.313 0-10.313-19.603-10.313-19.603v-99.414c0-5.696 4.617-10.313 10.313-10.313h90.614v114.275l9.29 2.911-9.29 2.853z" fill="#405b6c"/><path d="m192.18 216.509v18.581c0 5.696 4.617 10.313 10.313 10.313h90.614l9.29-9.29-9.29-9.29h-90.614c-5.696-.001-10.313-4.619-10.313-10.314z" fill="#2d4456"/><path d="m302.396 236.112h81.323c10.313 0 10.313-19.603 10.313-19.603v-99.414c0-5.696-4.617-10.313-10.313-10.313h-90.614v120.039z" fill="#2d4456"/><path d="m383.72 226.822h-90.614v18.581h90.614c5.695 0 10.313-4.617 10.313-10.313v-18.581c0 5.695-4.618 10.313-10.313 10.313z" fill="#253847"/><path d="m362.014 105.225c-44.313-26.341-68.91 1.557-68.91 1.557s-24.598-27.898-68.91-1.557c-1.57.933-2.541 2.626-2.541 4.453v92.799l6.747 5.363c28.979-20.321 57.529-1.313 57.529-1.313l7.175-4.05 7.175 4.05s28.55-19.008 57.529 1.313l6.747-5.363v-92.799c0-1.827-.97-3.519-2.541-4.453z" fill="#f2fdff"/><path d="m293.104 202.477s-25.539-28.965-71.451 0v9.655c0 3.853 4.087 6.382 7.503 4.599 41.183-21.492 63.948 4.327 63.948 4.327s22.765-25.819 63.948-4.327c3.416 1.783 7.503-.746 7.503-4.599v-9.655c-45.912-28.966-71.451 0-71.451 0z" fill="#d3ecf5"/></g><g fill="#405b6c"><path d="m322.914 31.866c4.285 0 7.757-3.472 7.757-7.757s-3.473-7.757-7.757-7.757h-31.37c-4.285 0-7.757 3.472-7.757 7.757s3.473 7.757 7.757 7.757z"/><path d="m273.015 24.167c0-4.316-3.499-7.815-7.815-7.815s-7.815 3.499-7.815 7.815c0 4.317 3.499 7.815 7.815 7.815s7.815-3.499 7.815-7.815z"/><path d="m373.239 282.958h-160.114c-4.285 0-7.757 3.473-7.757 7.757 0 4.285 3.473 7.757 7.757 7.757h160.114c4.285 0 7.757-3.473 7.757-7.757s-3.473-7.757-7.757-7.757z"/><path d="m373.239 322.756h-160.114c-4.285 0-7.757 3.473-7.757 7.757 0 4.285 3.473 7.757 7.757 7.757h160.114c4.285 0 7.757-3.473 7.757-7.757s-3.473-7.757-7.757-7.757z"/></g></g></svg>